<svg width="840" height="320" viewBox="0 0 840 320" fill="none" xmlns="http://www.w3.org/2000/svg" role="img" aria-labelledby="title desc">
  <title id="title">zits/ui logo</title>
  <desc id="desc">A red and paper-colored segmented mark above the zits ui wordmark.</desc>
  <rect width="840" height="320" rx="32" fill="#0A0B10"/>
  <rect x="1" y="1" width="838" height="318" rx="31" stroke="white" stroke-opacity=".08" stroke-width="2"/>
  <g transform="translate(160 78) scale(4.48)">
    <rect x="0" y="0" width="76" height="8" rx="4" fill="#F5484A"/>
    <rect x="82" y="0" width="34" height="8" rx="4" fill="#F5484A"/>
    <rect x="0" y="17" width="54" height="8" rx="4" fill="#F4F5F7"/>
    <rect x="60" y="17" width="34" height="8" rx="4" fill="#F5484A"/>
    <rect x="100" y="17" width="16" height="8" rx="4" fill="#F4F5F7"/>
    <rect x="0" y="34" width="36" height="8" rx="4" fill="#F4F5F7"/>
    <rect x="42" y="34" width="34" height="8" rx="4" fill="#F5484A"/>
    <rect x="82" y="34" width="34" height="8" rx="4" fill="#F4F5F7"/>
    <rect x="0" y="51" width="18" height="8" rx="4" fill="#F4F5F7"/>
    <rect x="24" y="51" width="34" height="8" rx="4" fill="#F5484A"/>
    <rect x="64" y="51" width="52" height="8" rx="4" fill="#F4F5F7"/>
    <rect x="0" y="68" width="34" height="8" rx="4" fill="#F5484A"/>
    <rect x="40" y="68" width="76" height="8" rx="4" fill="#F5484A"/>
  </g>
  <text x="420" y="262" text-anchor="middle" font-family="Geist, Inter, ui-sans-serif, system-ui, -apple-system, BlinkMacSystemFont, 'Segoe UI', sans-serif" font-size="52" font-weight="600" fill="#E7E8EC">zits <tspan fill="#8A8B93" font-weight="500">ui</tspan></text>
</svg>
